<svg width="872" height="88" viewBox="0 0 872 88" fill="none" xmlns="http://www.w3.org/2000/svg">
<path d="M0.62 86L25.46 23H39.41L64.25 86H52.82L45.44 67.1H19.25L11.78 86H0.62ZM19.88 65.39H44.72L32.39 34.34L19.88 65.39ZM75.6969 86V23H86.4969V75.56H118.897V86H75.6969ZM155.098 87.35C149.578 87.35 144.598 85.97 140.158 83.21C135.778 80.45 132.328 76.58 129.808 71.6C127.348 66.62 126.118 60.92 126.118 54.5C126.118 48.2 127.498 42.56 130.258 37.58C133.078 32.6 136.918 28.7 141.778 25.88C146.698 23.06 152.248 21.65 158.428 21.65C163.648 21.65 168.418 22.67 172.738 24.71C177.058 26.75 180.598 29.6 183.358 33.26C186.178 36.92 188.038 41.15 188.938 45.95H177.598C176.518 41.57 174.298 38.12 170.938 35.6C167.578 33.08 163.498 31.82 158.698 31.82C154.498 31.82 150.748 32.81 147.448 34.79C144.208 36.71 141.658 39.41 139.798 42.89C137.998 46.37 137.098 50.33 137.098 54.77C137.098 59.27 138.028 63.29 139.888 66.83C141.748 70.37 144.328 73.13 147.628 75.11C150.988 77.09 154.798 78.08 159.058 78.08C163.078 78.08 166.678 77.15 169.858 75.29C173.098 73.43 175.618 70.88 177.418 67.64C179.278 64.34 180.208 60.65 180.208 56.57V55.4H159.328V53.6H189.388V86H180.208V63.77C179.008 71.03 176.188 76.79 171.748 81.05C167.368 85.25 161.818 87.35 155.098 87.35ZM232.861 87.35C227.221 87.35 222.271 86.18 218.011 83.84C213.751 81.44 210.451 78.08 208.111 73.76C205.771 69.44 204.601 64.4 204.601 58.64V23H215.401V58.1C215.401 62 216.091 65.36 217.471 68.18C218.911 71 220.921 73.16 223.501 74.66C226.141 76.16 229.261 76.91 232.861 76.91C236.521 76.91 239.641 76.16 242.221 74.66C244.861 73.16 246.871 71 248.251 68.18C249.631 65.36 250.321 62 250.321 58.1V23H261.121V58.64C261.121 64.4 259.951 69.44 257.611 73.76C255.331 78.08 252.061 81.44 247.801 83.84C243.541 86.18 238.561 87.35 232.861 87.35ZM279.603 86V23H290.943L313.263 83.66L335.583 23H346.833V86H336.033V27.5L314.343 86H312.093L290.403 27.5V86H279.603ZM358.335 86L383.175 23H397.125L421.965 86H410.535L403.155 67.1H376.965L369.495 86H358.335ZM377.595 65.39H402.435L390.105 34.34L377.595 65.39ZM455.912 86V23H475.982C482.762 23 488.762 24.32 493.982 26.96C499.202 29.54 503.222 33.23 506.042 38.03C508.922 42.77 510.362 48.26 510.362 54.5C510.362 60.68 508.922 66.17 506.042 70.97C503.222 75.71 499.202 79.4 493.982 82.04C488.762 84.68 482.762 86 475.982 86H455.912ZM475.982 76.19C480.722 76.19 484.832 75.32 488.312 73.58C491.792 71.78 494.462 69.26 496.322 66.02C498.242 62.72 499.202 58.88 499.202 54.5C499.202 50.12 498.242 46.31 496.322 43.07C494.462 39.77 491.792 37.25 488.312 35.51C484.832 33.71 480.722 32.81 475.982 32.81H466.712V76.19H475.982ZM552.08 87.35C546.44 87.35 541.49 86.18 537.23 83.84C532.97 81.44 529.67 78.08 527.33 73.76C524.99 69.44 523.82 64.4 523.82 58.64V23H534.62V58.1C534.62 62 535.31 65.36 536.69 68.18C538.13 71 540.14 73.16 542.72 74.66C545.36 76.16 548.48 76.91 552.08 76.91C555.74 76.91 558.86 76.16 561.44 74.66C564.08 73.16 566.09 71 567.47 68.18C568.85 65.36 569.54 62 569.54 58.1V23H580.34V58.64C580.34 64.4 579.17 69.44 576.83 73.76C574.55 78.08 571.28 81.44 567.02 83.84C562.76 86.18 557.78 87.35 552.08 87.35ZM552.08 15.35L558.02 0.949995H560L553.97 15.35H552.08ZM616.102 86L590.992 23H602.692L623.302 76.37H623.572L644.182 23H655.522L630.322 86H616.102ZM666.498 86V23H677.298V86H666.498ZM697.084 86V23H717.154C723.934 23 729.934 24.32 735.154 26.96C740.374 29.54 744.394 33.23 747.214 38.03C750.094 42.77 751.534 48.26 751.534 54.5C751.534 60.68 750.094 66.17 747.214 70.97C744.394 75.71 740.374 79.4 735.154 82.04C729.934 84.68 723.934 86 717.154 86H697.084ZM717.154 76.19C721.894 76.19 726.004 75.32 729.484 73.58C732.964 71.78 735.634 69.26 737.494 66.02C739.414 62.72 740.374 58.88 740.374 54.5C740.374 50.12 739.414 46.31 737.494 43.07C735.634 39.77 732.964 37.25 729.484 35.51C726.004 33.71 721.894 32.81 717.154 32.81H707.884V76.19H717.154ZM756.304 86L781.144 23H795.094L819.934 86H808.504L801.124 67.1H774.934L767.464 86H756.304ZM775.564 65.39H800.404L788.074 34.34L775.564 65.39ZM842.72 65.3C842.66 64.94 842.6 64.61 842.54 64.31C842.54 63.95 842.54 63.62 842.54 63.32C842.54 60.92 842.96 58.85 843.8 57.11C844.64 55.37 845.84 53.84 847.4 52.52C848.96 51.2 850.91 49.97 853.25 48.83C853.31 48.77 853.34 48.74 853.34 48.74C853.4 48.74 853.46 48.71 853.52 48.65C855.08 47.81 856.34 46.97 857.3 46.13C858.32 45.23 859.07 44.24 859.55 43.16C860.03 42.08 860.27 40.85 860.27 39.47C860.27 36.71 859.16 34.58 856.94 33.08C854.72 31.52 851.9 30.74 848.48 30.74C844.4 30.74 841.19 31.88 838.85 34.16C836.57 36.38 835.31 39.38 835.07 43.16H824.45C824.69 38.84 825.83 35.06 827.87 31.82C829.91 28.58 832.7 26.09 836.24 24.35C839.84 22.55 844.01 21.65 848.75 21.65C853.13 21.65 857 22.34 860.36 23.72C863.78 25.1 866.42 27.11 868.28 29.75C870.2 32.39 871.16 35.51 871.16 39.11C871.16 42.59 870.2 45.53 868.28 47.93C866.42 50.27 863.78 52.25 860.36 53.87C860.36 53.87 860.33 53.9 860.27 53.96C858.05 55.28 856.34 56.42 855.14 57.38C853.94 58.34 853.04 59.45 852.44 60.71C851.84 61.97 851.54 63.5 851.54 65.3H842.72ZM847.58 86.81C845.66 86.81 844.04 86.15 842.72 84.83C841.46 83.51 840.83 81.89 840.83 79.97C840.83 78.05 841.49 76.46 842.81 75.2C844.13 73.88 845.72 73.22 847.58 73.22C849.5 73.22 851.09 73.88 852.35 75.2C853.67 76.46 854.33 78.05 854.33 79.97C854.33 81.89 853.67 83.51 852.35 84.83C851.09 86.15 849.5 86.81 847.58 86.81Z" fill="#F5F5F5"/>
</svg>
