<svg width="332" height="67" viewBox="0 0 332 67" fill="none" xmlns="http://www.w3.org/2000/svg">
<path d="M33.44 66.35C27.2 66.35 21.62 64.94 16.7 62.12C11.78 59.3 7.91 55.4 5.09 50.42C2.33 45.44 0.95 39.8 0.95 33.5C0.95 27.2 2.33 21.56 5.09 16.58C7.91 11.6 11.78 7.7 16.7 4.88C21.62 2.06 27.2 0.649997 33.44 0.649997C38.84 0.649997 43.76 1.79 48.2 4.07C52.7 6.29 56.33 9.41 59.09 13.43C61.85 17.45 63.5 22.04 64.04 27.2H53.15C52.55 23.96 51.32 21.14 49.46 18.74C47.66 16.34 45.38 14.48 42.62 13.16C39.86 11.84 36.77 11.18 33.35 11.18C29.21 11.18 25.52 12.14 22.28 14.06C19.04 15.92 16.52 18.56 14.72 21.98C12.92 25.34 12.02 29.18 12.02 33.5C12.02 37.82 12.92 41.66 14.72 45.02C16.52 48.38 19.04 51.02 22.28 52.94C25.52 54.8 29.21 55.73 33.35 55.73C36.77 55.73 39.86 55.1 42.62 53.84C45.38 52.52 47.66 50.66 49.46 48.26C51.32 45.86 52.55 43.04 53.15 39.8H64.04C63.5 44.96 61.85 49.55 59.09 53.57C56.33 57.59 52.7 60.74 48.2 63.02C43.76 65.24 38.84 66.35 33.44 66.35ZM68.1083 65L92.9483 2H106.898L131.738 65H120.308L112.928 46.1H86.7383L79.2683 65H68.1083ZM87.3683 44.39H112.208L99.8783 13.34L87.3683 44.39ZM143.185 65V2H165.235C172.915 2 178.945 3.62 183.325 6.86C187.765 10.04 189.985 14.42 189.985 20C189.985 24.44 188.635 28.13 185.935 31.07C183.235 34.01 179.455 35.99 174.595 37.01L195.565 65H183.415L163.165 37.91C162.925 37.97 162.685 38 162.445 38C162.205 38 161.965 38 161.725 38H153.805V65H143.185ZM164.065 36.2C168.745 36.2 172.435 35.09 175.135 32.87C177.835 30.65 179.185 27.65 179.185 23.87C179.185 20.03 177.835 17 175.135 14.78C172.435 12.56 168.745 11.45 164.065 11.45H153.805V36.2H164.065ZM207.257 65V2H229.307C236.987 2 243.017 3.62 247.397 6.86C251.837 10.04 254.057 14.42 254.057 20C254.057 24.44 252.707 28.13 250.007 31.07C247.307 34.01 243.527 35.99 238.667 37.01L259.637 65H247.487L227.237 37.91C226.997 37.97 226.757 38 226.517 38C226.277 38 226.037 38 225.797 38H217.877V65H207.257ZM228.137 36.2C232.817 36.2 236.507 35.09 239.207 32.87C241.907 30.65 243.257 27.65 243.257 23.87C243.257 20.03 241.907 17 239.207 14.78C236.507 12.56 232.817 11.45 228.137 11.45H217.877V36.2H228.137ZM298.351 66.35C292.171 66.35 286.561 64.94 281.521 62.12C276.541 59.24 272.611 55.31 269.731 50.33C266.911 45.29 265.501 39.68 265.501 33.5C265.501 27.32 266.911 21.74 269.731 16.76C272.611 11.72 276.541 7.79 281.521 4.97C286.561 2.09 292.171 0.649997 298.351 0.649997C304.531 0.649997 310.111 2.09 315.091 4.97C320.131 7.79 324.061 11.72 326.881 16.76C329.761 21.74 331.201 27.32 331.201 33.5C331.201 39.68 329.761 45.29 326.881 50.33C324.061 55.31 320.131 59.24 315.091 62.12C310.111 64.94 304.531 66.35 298.351 66.35ZM298.351 55.73C302.491 55.73 306.211 54.77 309.511 52.85C312.871 50.93 315.481 48.29 317.341 44.93C319.261 41.51 320.221 37.7 320.221 33.5C320.221 29.3 319.261 25.52 317.341 22.16C315.481 18.74 312.871 16.07 309.511 14.15C306.211 12.17 302.491 11.18 298.351 11.18C294.211 11.18 290.491 12.17 287.191 14.15C283.891 16.07 281.281 18.74 279.361 22.16C277.501 25.52 276.571 29.3 276.571 33.5C276.571 37.7 277.501 41.51 279.361 44.93C281.281 48.29 283.891 50.93 287.191 52.85C290.491 54.77 294.211 55.73 298.351 55.73Z" fill="#F5F5F5"/>
</svg>
