<svg width="763" height="83" viewBox="0 0 763 83" fill="none" xmlns="http://www.w3.org/2000/svg">
<path d="M0.900001 65V2H41.49V11.45H11.52V32.6H32.58V34.4H11.52V55.55H44.64V65H0.900001ZM78.3316 65.72C73.0516 65 68.3116 63.17 64.1116 60.23C59.9716 57.23 56.7316 53.42 54.3916 48.8C52.0516 44.18 50.8816 39.08 50.8816 33.5C50.8816 27.32 52.2916 21.74 55.1116 16.76C57.9916 11.72 61.9216 7.79 66.9016 4.97C71.9416 2.09 77.5516 0.649997 83.7316 0.649997C89.9116 0.649997 95.4916 2.09 100.472 4.97C105.512 7.79 109.442 11.72 112.262 16.76C115.142 21.74 116.582 27.32 116.582 33.5C116.582 39.08 115.412 44.18 113.072 48.8C110.732 53.42 107.462 57.23 103.262 60.23C99.1216 63.17 94.4116 65 89.1316 65.72V83H78.3316V65.72ZM83.7316 55.73C87.8716 55.73 91.5916 54.77 94.8916 52.85C98.2516 50.93 100.862 48.29 102.722 44.93C104.642 41.51 105.602 37.7 105.602 33.5C105.602 29.3 104.642 25.52 102.722 22.16C100.862 18.74 98.2516 16.07 94.8916 14.15C91.5916 12.17 87.8716 11.18 83.7316 11.18C79.5916 11.18 75.8716 12.17 72.5716 14.15C69.2716 16.07 66.6616 18.74 64.7416 22.16C62.8816 25.52 61.9516 29.3 61.9516 33.5C61.9516 37.7 62.8816 41.51 64.7416 44.93C66.6616 48.29 69.2716 50.93 72.5716 52.85C75.8716 54.77 79.5916 55.73 83.7316 55.73ZM158.328 66.35C152.688 66.35 147.738 65.18 143.478 62.84C139.218 60.44 135.918 57.08 133.578 52.76C131.238 48.44 130.068 43.4 130.068 37.64V2H140.868V37.1C140.868 41 141.558 44.36 142.938 47.18C144.378 50 146.388 52.16 148.968 53.66C151.608 55.16 154.728 55.91 158.328 55.91C161.988 55.91 165.108 55.16 167.688 53.66C170.328 52.16 172.338 50 173.718 47.18C175.098 44.36 175.788 41 175.788 37.1V2H186.588V37.64C186.588 43.4 185.418 48.44 183.078 52.76C180.798 57.08 177.528 60.44 173.268 62.84C169.008 65.18 164.028 66.35 158.328 66.35ZM205.07 65V2H215.87V65H205.07ZM235.656 65V2H257.706C265.386 2 271.416 3.62 275.796 6.86C280.236 10.04 282.456 14.42 282.456 20C282.456 25.58 280.356 29.99 276.156 33.23C272.016 36.41 266.316 38 259.056 38H246.456V65H235.656ZM256.536 36.2C261.216 36.2 264.906 35.09 267.606 32.87C270.306 30.65 271.656 27.65 271.656 23.87C271.656 20.03 270.306 17 267.606 14.78C264.906 12.56 261.216 11.45 256.536 11.45H246.456V36.2H256.536ZM283.626 65L308.466 2H322.416L347.256 65H335.826L328.446 46.1H302.256L294.786 65H283.626ZM302.886 44.39H327.726L315.396 13.34L302.886 44.39ZM358.703 65V2H370.043L392.363 62.66L414.683 2H425.933V65H415.133V6.5L393.443 65H391.193L369.503 6.5V65H358.703ZM445.714 65V2H486.304V11.45H456.334V32.6H477.394V34.4H456.334V55.55H489.454V65H445.714ZM503.283 65V2H514.263L548.283 61.13V2H559.083V65H548.193L514.083 5.87V65H503.283ZM594.889 65V12.44H571.219V2H629.269V12.44H605.689V65H594.889ZM667.062 66.35C660.882 66.35 655.272 64.94 650.232 62.12C645.252 59.24 641.322 55.31 638.442 50.33C635.622 45.29 634.212 39.68 634.212 33.5C634.212 27.32 635.622 21.74 638.442 16.76C641.322 11.72 645.252 7.79 650.232 4.97C655.272 2.09 660.882 0.649997 667.062 0.649997C673.242 0.649997 678.822 2.09 683.802 4.97C688.842 7.79 692.772 11.72 695.592 16.76C698.472 21.74 699.912 27.32 699.912 33.5C699.912 39.68 698.472 45.29 695.592 50.33C692.772 55.31 688.842 59.24 683.802 62.12C678.822 64.94 673.242 66.35 667.062 66.35ZM667.062 55.73C671.202 55.73 674.922 54.77 678.222 52.85C681.582 50.93 684.192 48.29 686.052 44.93C687.972 41.51 688.932 37.7 688.932 33.5C688.932 29.3 687.972 25.52 686.052 22.16C684.192 18.74 681.582 16.07 678.222 14.15C674.922 12.17 671.202 11.18 667.062 11.18C662.922 11.18 659.202 12.17 655.902 14.15C652.602 16.07 649.992 18.74 648.072 22.16C646.212 25.52 645.282 29.3 645.282 33.5C645.282 37.7 646.212 41.51 648.072 44.93C649.992 48.29 652.602 50.93 655.902 52.85C659.202 54.77 662.922 55.73 667.062 55.73ZM737.248 66.35C731.608 66.35 726.628 65.39 722.308 63.47C718.048 61.55 714.658 58.82 712.138 55.28C709.678 51.68 708.268 47.51 707.908 42.77H718.618C719.038 45.77 719.998 48.38 721.498 50.6C722.998 52.76 725.038 54.44 727.618 55.64C730.198 56.84 733.198 57.44 736.618 57.44C741.538 57.44 745.348 56.48 748.048 54.56C750.808 52.64 752.188 49.94 752.188 46.46C752.188 43.88 751.378 41.78 749.758 40.16C748.198 38.48 746.008 37.16 743.188 36.2C740.428 35.24 736.828 34.31 732.388 33.41H732.298C727.618 32.45 723.688 31.37 720.508 30.17C717.388 28.91 714.898 27.26 713.038 25.22C711.238 23.12 710.338 20.51 710.338 17.39C710.338 14.03 711.358 11.09 713.398 8.57C715.498 6.05 718.378 4.1 722.038 2.72C725.698 1.34 729.868 0.649997 734.548 0.649997C740.068 0.649997 744.868 1.58 748.948 3.44C753.088 5.3 756.328 7.97 758.668 11.45C761.008 14.87 762.358 18.95 762.718 23.69H751.558C751.078 19.25 749.368 15.8 746.428 13.34C743.488 10.88 739.648 9.65 734.908 9.65C731.908 9.65 729.268 10.1 726.988 11C724.768 11.9 723.028 13.19 721.768 14.87C720.568 16.55 719.968 18.53 719.968 20.81C719.968 23.33 720.778 25.37 722.398 26.93C724.018 28.43 726.328 29.69 729.328 30.71C732.328 31.67 736.618 32.75 742.198 33.95C742.438 34.01 742.648 34.07 742.828 34.13C743.008 34.13 743.218 34.16 743.458 34.22C743.578 34.28 743.698 34.31 743.818 34.31C743.938 34.31 744.058 34.34 744.178 34.4C748.018 35.24 751.228 36.2 753.808 37.28C756.448 38.36 758.548 39.89 760.108 41.87C761.728 43.85 762.538 46.4 762.538 49.52C762.538 52.88 761.488 55.85 759.388 58.43C757.348 60.95 754.408 62.9 750.568 64.28C746.728 65.66 742.288 66.35 737.248 66.35Z" fill="#F5F5F5"/>
</svg>
