<svg width="526" height="171" viewBox="0 0 526 171" fill="none" xmlns="http://www.w3.org/2000/svg">
<path d="M33.3928 66.35C27.2128 66.35 21.6028 64.94 16.5628 62.12C11.5828 59.24 7.65277 55.31 4.77277 50.33C1.95277 45.29 0.542774 39.68 0.542774 33.5C0.542774 27.32 1.95277 21.74 4.77277 16.76C7.65277 11.72 11.5828 7.79 16.5628 4.97C21.6028 2.09 27.2128 0.649997 33.3928 0.649997C39.5728 0.649997 45.1528 2.09 50.1328 4.97C55.1728 7.79 59.1028 11.72 61.9228 16.76C64.8028 21.74 66.2428 27.32 66.2428 33.5C66.2428 39.68 64.8028 45.29 61.9228 50.33C59.1028 55.31 55.1728 59.24 50.1328 62.12C45.1528 64.94 39.5728 66.35 33.3928 66.35ZM33.3928 55.73C37.5328 55.73 41.2528 54.77 44.5528 52.85C47.9128 50.93 50.5228 48.29 52.3828 44.93C54.3028 41.51 55.2628 37.7 55.2628 33.5C55.2628 29.3 54.3028 25.52 52.3828 22.16C50.5228 18.74 47.9128 16.07 44.5528 14.15C41.2528 12.17 37.5328 11.18 33.3928 11.18C29.2528 11.18 25.5328 12.17 22.2328 14.15C18.9328 16.07 16.3228 18.74 14.4028 22.16C12.5428 25.52 11.6128 29.3 11.6128 33.5C11.6128 37.7 12.5428 41.51 14.4028 44.93C16.3228 48.29 18.9328 50.93 22.2328 52.85C25.5328 54.77 29.2528 55.73 33.3928 55.73ZM131.119 66.35C124.879 66.35 119.299 64.94 114.379 62.12C109.459 59.3 105.589 55.4 102.769 50.42C100.009 45.44 98.6287 39.8 98.6287 33.5C98.6287 27.2 100.009 21.56 102.769 16.58C105.589 11.6 109.459 7.7 114.379 4.88C119.299 2.06 124.879 0.649997 131.119 0.649997C136.519 0.649997 141.439 1.79 145.879 4.07C150.379 6.29 154.009 9.41 156.769 13.43C159.529 17.45 161.179 22.04 161.719 27.2H150.829C150.229 23.96 148.999 21.14 147.139 18.74C145.339 16.34 143.059 14.48 140.299 13.16C137.539 11.84 134.449 11.18 131.029 11.18C126.889 11.18 123.199 12.14 119.959 14.06C116.719 15.92 114.199 18.56 112.399 21.98C110.599 25.34 109.699 29.18 109.699 33.5C109.699 37.82 110.599 41.66 112.399 45.02C114.199 48.38 116.719 51.02 119.959 52.94C123.199 54.8 126.889 55.73 131.029 55.73C134.449 55.73 137.539 55.1 140.299 53.84C143.059 52.52 145.339 50.66 147.139 48.26C148.999 45.86 150.229 43.04 150.829 39.8H161.719C161.179 44.96 159.529 49.55 156.769 53.57C154.009 57.59 150.379 60.74 145.879 63.02C141.439 65.24 136.519 66.35 131.119 66.35ZM203.725 66.35C197.545 66.35 191.935 64.94 186.895 62.12C181.915 59.24 177.985 55.31 175.105 50.33C172.285 45.29 170.875 39.68 170.875 33.5C170.875 27.32 172.285 21.74 175.105 16.76C177.985 11.72 181.915 7.79 186.895 4.97C191.935 2.09 197.545 0.649997 203.725 0.649997C209.905 0.649997 215.485 2.09 220.465 4.97C225.505 7.79 229.435 11.72 232.255 16.76C235.135 21.74 236.575 27.32 236.575 33.5C236.575 39.68 235.135 45.29 232.255 50.33C229.435 55.31 225.505 59.24 220.465 62.12C215.485 64.94 209.905 66.35 203.725 66.35ZM203.725 55.73C207.865 55.73 211.585 54.77 214.885 52.85C218.245 50.93 220.855 48.29 222.715 44.93C224.635 41.51 225.595 37.7 225.595 33.5C225.595 29.3 224.635 25.52 222.715 22.16C220.855 18.74 218.245 16.07 214.885 14.15C211.585 12.17 207.865 11.18 203.725 11.18C199.585 11.18 195.865 12.17 192.565 14.15C189.265 16.07 186.655 18.74 184.735 22.16C182.875 25.52 181.945 29.3 181.945 33.5C181.945 37.7 182.875 41.51 184.735 44.93C186.655 48.29 189.265 50.93 192.565 52.85C195.865 54.77 199.585 55.73 203.725 55.73ZM250.532 65V2H261.872L284.192 62.66L306.512 2H317.762V65H306.962V6.5L285.272 65H283.022L261.332 6.5V65H250.532ZM337.544 65V2H378.134V11.45H348.164V32.6H369.224V34.4H348.164V55.55H381.284V65H337.544ZM420.015 66.35C413.775 66.35 408.195 64.94 403.275 62.12C398.355 59.3 394.485 55.4 391.665 50.42C388.905 45.44 387.525 39.8 387.525 33.5C387.525 27.2 388.905 21.56 391.665 16.58C394.485 11.6 398.355 7.7 403.275 4.88C408.195 2.06 413.775 0.649997 420.015 0.649997C425.415 0.649997 430.335 1.79 434.775 4.07C439.275 6.29 442.905 9.41 445.665 13.43C448.425 17.45 450.075 22.04 450.615 27.2H439.725C439.125 23.96 437.895 21.14 436.035 18.74C434.235 16.34 431.955 14.48 429.195 13.16C426.435 11.84 423.345 11.18 419.925 11.18C415.785 11.18 412.095 12.14 408.855 14.06C405.615 15.92 403.095 18.56 401.295 21.98C399.495 25.34 398.595 29.18 398.595 33.5C398.595 37.82 399.495 41.66 401.295 45.02C403.095 48.38 405.615 51.02 408.855 52.94C412.095 54.8 415.785 55.73 419.925 55.73C423.345 55.73 426.435 55.1 429.195 53.84C431.955 52.52 434.235 50.66 436.035 48.26C437.895 45.86 439.125 43.04 439.725 39.8H450.615C450.075 44.96 448.425 49.55 445.665 53.57C442.905 57.59 439.275 60.74 434.775 63.02C430.335 65.24 425.415 66.35 420.015 66.35ZM420.375 72.65L414.435 87.05H412.455L418.485 72.65H420.375ZM492.621 66.35C486.441 66.35 480.831 64.94 475.791 62.12C470.811 59.24 466.881 55.31 464.001 50.33C461.181 45.29 459.771 39.68 459.771 33.5C459.771 27.32 461.181 21.74 464.001 16.76C466.881 11.72 470.811 7.79 475.791 4.97C480.831 2.09 486.441 0.649997 492.621 0.649997C498.801 0.649997 504.381 2.09 509.361 4.97C514.401 7.79 518.331 11.72 521.151 16.76C524.031 21.74 525.471 27.32 525.471 33.5C525.471 39.68 524.031 45.29 521.151 50.33C518.331 55.31 514.401 59.24 509.361 62.12C504.381 64.94 498.801 66.35 492.621 66.35ZM492.621 55.73C496.761 55.73 500.481 54.77 503.781 52.85C507.141 50.93 509.751 48.29 511.611 44.93C513.531 41.51 514.491 37.7 514.491 33.5C514.491 29.3 513.531 25.52 511.611 22.16C509.751 18.74 507.141 16.07 503.781 14.15C500.481 12.17 496.761 11.18 492.621 11.18C488.481 11.18 484.761 12.17 481.461 14.15C478.161 16.07 475.551 18.74 473.631 22.16C471.771 25.52 470.841 29.3 470.841 33.5C470.841 37.7 471.771 41.51 473.631 44.93C475.551 48.29 478.161 50.93 481.461 52.85C484.761 54.77 488.481 55.73 492.621 55.73ZM58.359 169V106H78.429C85.209 106 91.209 107.32 96.429 109.96C101.649 112.54 105.669 116.23 108.489 121.03C111.369 125.77 112.809 131.26 112.809 137.5C112.809 143.68 111.369 149.17 108.489 153.97C105.669 158.71 101.649 162.4 96.429 165.04C91.209 167.68 85.209 169 78.429 169H58.359ZM78.429 159.19C83.169 159.19 87.279 158.32 90.759 156.58C94.239 154.78 96.909 152.26 98.769 149.02C100.689 145.72 101.649 141.88 101.649 137.5C101.649 133.12 100.689 129.31 98.769 126.07C96.909 122.77 94.239 120.25 90.759 118.51C87.279 116.71 83.169 115.81 78.429 115.81H69.159V159.19H78.429ZM126.738 169V106H167.328V115.45H137.358V136.6H158.418V138.4H137.358V159.55H170.478V169H126.738ZM222.826 169V116.44H199.156V106H257.206V116.44H233.626V169H222.826ZM295.855 170.35C290.215 170.35 285.265 169.18 281.005 166.84C276.745 164.44 273.445 161.08 271.105 156.76C268.765 152.44 267.595 147.4 267.595 141.64V106H278.395V141.1C278.395 145 279.085 148.36 280.465 151.18C281.905 154 283.915 156.16 286.495 157.66C289.135 159.16 292.255 159.91 295.855 159.91C299.515 159.91 302.635 159.16 305.215 157.66C307.855 156.16 309.865 154 311.245 151.18C312.625 148.36 313.315 145 313.315 141.1V106H324.115V141.64C324.115 147.4 322.945 152.44 320.605 156.76C318.325 161.08 315.055 164.44 310.795 166.84C306.535 169.18 301.555 170.35 295.855 170.35ZM342.597 169V106H362.667C369.447 106 375.447 107.32 380.667 109.96C385.887 112.54 389.907 116.23 392.727 121.03C395.607 125.77 397.047 131.26 397.047 137.5C397.047 143.68 395.607 149.17 392.727 153.97C389.907 158.71 385.887 162.4 380.667 165.04C375.447 167.68 369.447 169 362.667 169H342.597ZM362.667 159.19C367.407 159.19 371.517 158.32 374.997 156.58C378.477 154.78 381.147 152.26 383.007 149.02C384.927 145.72 385.887 141.88 385.887 137.5C385.887 133.12 384.927 129.31 383.007 126.07C381.147 122.77 378.477 120.25 374.997 118.51C371.517 116.71 367.407 115.81 362.667 115.81H353.397V159.19H362.667ZM439.755 170.35C433.575 170.35 427.965 168.94 422.925 166.12C417.945 163.24 414.015 159.31 411.135 154.33C408.315 149.29 406.905 143.68 406.905 137.5C406.905 131.32 408.315 125.74 411.135 120.76C414.015 115.72 417.945 111.79 422.925 108.97C427.965 106.09 433.575 104.65 439.755 104.65C445.935 104.65 451.515 106.09 456.495 108.97C461.535 111.79 465.465 115.72 468.285 120.76C471.165 125.74 472.605 131.32 472.605 137.5C472.605 143.68 471.165 149.29 468.285 154.33C465.465 159.31 461.535 163.24 456.495 166.12C451.515 168.94 445.935 170.35 439.755 170.35ZM439.755 159.73C443.895 159.73 447.615 158.77 450.915 156.85C454.275 154.93 456.885 152.29 458.745 148.93C460.665 145.51 461.625 141.7 461.625 137.5C461.625 133.3 460.665 129.52 458.745 126.16C456.885 122.74 454.275 120.07 450.915 118.15C447.615 116.17 443.895 115.18 439.755 115.18C435.615 115.18 431.895 116.17 428.595 118.15C425.295 120.07 422.685 122.74 420.765 126.16C418.905 129.52 417.975 133.3 417.975 137.5C417.975 141.7 418.905 145.51 420.765 148.93C422.685 152.29 425.295 154.93 428.595 156.85C431.895 158.77 435.615 159.73 439.755 159.73Z" fill="#F5F5F5"/>
</svg>
