<svg width="436" height="67" viewBox="0 0 436 67" fill="none" xmlns="http://www.w3.org/2000/svg">
<path d="M0.900001 65V2H22.95C30.63 2 36.66 3.62 41.04 6.86C45.48 10.04 47.7 14.42 47.7 20C47.7 25.58 45.6 29.99 41.4 33.23C37.26 36.41 31.56 38 24.3 38H11.7V65H0.900001ZM21.78 36.2C26.46 36.2 30.15 35.09 32.85 32.87C35.55 30.65 36.9 27.65 36.9 23.87C36.9 20.03 35.55 17 32.85 14.78C30.15 12.56 26.46 11.45 21.78 11.45H11.7V36.2H21.78ZM60.3141 65V2H82.3641C90.0441 2 96.0741 3.62 100.454 6.86C104.894 10.04 107.114 14.42 107.114 20C107.114 24.44 105.764 28.13 103.064 31.07C100.364 34.01 96.5841 35.99 91.7241 37.01L112.694 65H100.544L80.2941 37.91C80.0541 37.97 79.8141 38 79.5741 38C79.3341 38 79.0941 38 78.8541 38H70.9341V65H60.3141ZM81.1941 36.2C85.8741 36.2 89.5641 35.09 92.2641 32.87C94.9641 30.65 96.3141 27.65 96.3141 23.87C96.3141 20.03 94.9641 17 92.2641 14.78C89.5641 12.56 85.8741 11.45 81.1941 11.45H70.9341V36.2H81.1941ZM151.407 66.35C145.227 66.35 139.617 64.94 134.577 62.12C129.597 59.24 125.667 55.31 122.787 50.33C119.967 45.29 118.557 39.68 118.557 33.5C118.557 27.32 119.967 21.74 122.787 16.76C125.667 11.72 129.597 7.79 134.577 4.97C139.617 2.09 145.227 0.649997 151.407 0.649997C157.587 0.649997 163.167 2.09 168.147 4.97C173.187 7.79 177.117 11.72 179.937 16.76C182.817 21.74 184.257 27.32 184.257 33.5C184.257 39.68 182.817 45.29 179.937 50.33C177.117 55.31 173.187 59.24 168.147 62.12C163.167 64.94 157.587 66.35 151.407 66.35ZM151.407 55.73C155.547 55.73 159.267 54.77 162.567 52.85C165.927 50.93 168.537 48.29 170.397 44.93C172.317 41.51 173.277 37.7 173.277 33.5C173.277 29.3 172.317 25.52 170.397 22.16C168.537 18.74 165.927 16.07 162.567 14.15C159.267 12.17 155.547 11.18 151.407 11.18C147.267 11.18 143.547 12.17 140.247 14.15C136.947 16.07 134.337 18.74 132.417 22.16C130.557 25.52 129.627 29.3 129.627 33.5C129.627 37.7 130.557 41.51 132.417 44.93C134.337 48.29 136.947 50.93 140.247 52.85C143.547 54.77 147.267 55.73 151.407 55.73ZM215.833 66.35C211.153 66.35 206.983 65.36 203.323 63.38C199.723 61.4 196.903 58.61 194.863 55.01C192.883 51.41 191.893 47.24 191.893 42.5V37.1H202.513V41.87C202.513 44.63 203.053 47.09 204.133 49.25C205.273 51.35 206.833 52.97 208.813 54.11C210.793 55.25 213.073 55.82 215.653 55.82C219.493 55.82 222.553 54.56 224.833 52.04C227.173 49.46 228.343 46.07 228.343 41.87V2H239.143V42.5C239.143 47.24 238.183 51.41 236.263 55.01C234.343 58.61 231.613 61.4 228.073 63.38C224.593 65.36 220.513 66.35 215.833 66.35ZM257.804 65V2H298.394V11.45H268.424V32.6H289.484V34.4H268.424V55.55H301.544V65H257.804ZM330.074 65V12.44H306.404V2H364.454V12.44H340.874V65H330.074ZM402.247 66.35C396.067 66.35 390.457 64.94 385.417 62.12C380.437 59.24 376.507 55.31 373.627 50.33C370.807 45.29 369.397 39.68 369.397 33.5C369.397 27.32 370.807 21.74 373.627 16.76C376.507 11.72 380.437 7.79 385.417 4.97C390.457 2.09 396.067 0.649997 402.247 0.649997C408.427 0.649997 414.007 2.09 418.987 4.97C424.027 7.79 427.957 11.72 430.777 16.76C433.657 21.74 435.097 27.32 435.097 33.5C435.097 39.68 433.657 45.29 430.777 50.33C427.957 55.31 424.027 59.24 418.987 62.12C414.007 64.94 408.427 66.35 402.247 66.35ZM402.247 55.73C406.387 55.73 410.107 54.77 413.407 52.85C416.767 50.93 419.377 48.29 421.237 44.93C423.157 41.51 424.117 37.7 424.117 33.5C424.117 29.3 423.157 25.52 421.237 22.16C419.377 18.74 416.767 16.07 413.407 14.15C410.107 12.17 406.387 11.18 402.247 11.18C398.107 11.18 394.387 12.17 391.087 14.15C387.787 16.07 385.177 18.74 383.257 22.16C381.397 25.52 380.467 29.3 380.467 33.5C380.467 37.7 381.397 41.51 383.257 44.93C385.177 48.29 387.787 50.93 391.087 52.85C394.387 54.77 398.107 55.73 402.247 55.73Z" fill="#F5F5F5"/>
</svg>
