<svg width="698" height="88" viewBox="0 0 698 88" fill="none" xmlns="http://www.w3.org/2000/svg">
<path d="M0.900001 86V23H22.95C30.63 23 36.66 24.62 41.04 27.86C45.48 31.04 47.7 35.42 47.7 41C47.7 46.58 45.6 50.99 41.4 54.23C37.26 57.41 31.56 59 24.3 59H11.7V86H0.900001ZM21.78 57.2C26.46 57.2 30.15 56.09 32.85 53.87C35.55 51.65 36.9 48.65 36.9 44.87C36.9 41.03 35.55 38 32.85 35.78C30.15 33.56 26.46 32.45 21.78 32.45H11.7V57.2H21.78ZM88.5424 87.35C82.9024 87.35 77.9524 86.18 73.6924 83.84C69.4324 81.44 66.1324 78.08 63.7924 73.76C61.4524 69.44 60.2824 64.4 60.2824 58.64V23H71.0824V58.1C71.0824 62 71.7724 65.36 73.1524 68.18C74.5924 71 76.6024 73.16 79.1824 74.66C81.8224 76.16 84.9424 76.91 88.5424 76.91C92.2024 76.91 95.3224 76.16 97.9024 74.66C100.542 73.16 102.552 71 103.932 68.18C105.312 65.36 106.002 62 106.002 58.1V23H116.802V58.64C116.802 64.4 115.632 69.44 113.292 73.76C111.012 78.08 107.742 81.44 103.482 83.84C99.2224 86.18 94.2424 87.35 88.5424 87.35ZM88.5424 15.35L94.4824 0.949995H96.4624L90.4324 15.35H88.5424ZM135.285 86V23H163.365C169.785 23 174.825 24.44 178.485 27.32C182.145 30.2 183.975 34.16 183.975 39.2C183.975 42.86 182.955 45.98 180.915 48.56C178.875 51.08 175.965 52.88 172.185 53.96V54.41C176.565 55.37 179.985 57.2 182.445 59.9C184.905 62.6 186.135 65.9 186.135 69.8C186.135 73.04 185.295 75.89 183.615 78.35C181.995 80.81 179.655 82.7 176.595 84.02C173.535 85.34 169.995 86 165.975 86H135.285ZM162.285 75.83C166.125 75.83 169.185 74.9 171.465 73.04C173.745 71.18 174.885 68.69 174.885 65.57C174.885 62.45 173.715 59.99 171.375 58.19C169.095 56.33 166.065 55.4 162.285 55.4H146.085V75.83H162.285ZM160.665 53.6C164.505 53.6 167.565 52.67 169.845 50.81C172.125 48.95 173.265 46.46 173.265 43.34C173.265 40.22 172.125 37.76 169.845 35.96C167.565 34.1 164.505 33.17 160.665 33.17H146.085V53.6H160.665ZM200.5 86V23H211.3V75.56H243.7V86H200.5ZM256.75 86V23H267.55V86H256.75ZM313.997 87.35C307.757 87.35 302.177 85.94 297.257 83.12C292.337 80.3 288.467 76.4 285.647 71.42C282.887 66.44 281.507 60.8 281.507 54.5C281.507 48.2 282.887 42.56 285.647 37.58C288.467 32.6 292.337 28.7 297.257 25.88C302.177 23.06 307.757 21.65 313.997 21.65C319.397 21.65 324.317 22.79 328.757 25.07C333.257 27.29 336.887 30.41 339.647 34.43C342.407 38.45 344.057 43.04 344.597 48.2H333.707C333.107 44.96 331.877 42.14 330.017 39.74C328.217 37.34 325.937 35.48 323.177 34.16C320.417 32.84 317.327 32.18 313.907 32.18C309.767 32.18 306.077 33.14 302.837 35.06C299.597 36.92 297.077 39.56 295.277 42.98C293.477 46.34 292.577 50.18 292.577 54.5C292.577 58.82 293.477 62.66 295.277 66.02C297.077 69.38 299.597 72.02 302.837 73.94C306.077 75.8 309.767 76.73 313.907 76.73C317.327 76.73 320.417 76.1 323.177 74.84C325.937 73.52 328.217 71.66 330.017 69.26C331.877 66.86 333.107 64.04 333.707 60.8H344.597C344.057 65.96 342.407 70.55 339.647 74.57C336.887 78.59 333.257 81.74 328.757 84.02C324.317 86.24 319.397 87.35 313.997 87.35ZM386.603 87.35C380.423 87.35 374.813 85.94 369.773 83.12C364.793 80.24 360.863 76.31 357.983 71.33C355.163 66.29 353.753 60.68 353.753 54.5C353.753 48.32 355.163 42.74 357.983 37.76C360.863 32.72 364.793 28.79 369.773 25.97C374.813 23.09 380.423 21.65 386.603 21.65C392.783 21.65 398.363 23.09 403.343 25.97C408.383 28.79 412.313 32.72 415.133 37.76C418.013 42.74 419.453 48.32 419.453 54.5C419.453 60.68 418.013 66.29 415.133 71.33C412.313 76.31 408.383 80.24 403.343 83.12C398.363 85.94 392.783 87.35 386.603 87.35ZM386.603 76.73C390.743 76.73 394.463 75.77 397.763 73.85C401.123 71.93 403.733 69.29 405.593 65.93C407.513 62.51 408.473 58.7 408.473 54.5C408.473 50.3 407.513 46.52 405.593 43.16C403.733 39.74 401.123 37.07 397.763 35.15C394.463 33.17 390.743 32.18 386.603 32.18C382.463 32.18 378.743 33.17 375.443 35.15C372.143 37.07 369.533 39.74 367.613 43.16C365.753 46.52 364.823 50.3 364.823 54.5C364.823 58.7 365.753 62.51 367.613 65.93C369.533 69.29 372.143 71.93 375.443 73.85C378.743 75.77 382.463 76.73 386.603 76.73ZM448.509 86L473.349 23H487.299L512.139 86H500.709L493.329 67.1H467.139L459.669 86H448.509ZM467.769 65.39H492.609L480.279 34.34L467.769 65.39ZM523.586 86V23H534.386V75.56H566.786V86H523.586ZM589.03 86L563.92 23H575.62L596.23 76.37H596.5L617.11 23H628.45L603.25 86H589.03ZM665.128 87.35C658.948 87.35 653.338 85.94 648.298 83.12C643.318 80.24 639.388 76.31 636.508 71.33C633.688 66.29 632.278 60.68 632.278 54.5C632.278 48.32 633.688 42.74 636.508 37.76C639.388 32.72 643.318 28.79 648.298 25.97C653.338 23.09 658.948 21.65 665.128 21.65C671.308 21.65 676.888 23.09 681.868 25.97C686.908 28.79 690.838 32.72 693.658 37.76C696.538 42.74 697.978 48.32 697.978 54.5C697.978 60.68 696.538 66.29 693.658 71.33C690.838 76.31 686.908 80.24 681.868 83.12C676.888 85.94 671.308 87.35 665.128 87.35ZM665.128 76.73C669.268 76.73 672.988 75.77 676.288 73.85C679.648 71.93 682.258 69.29 684.118 65.93C686.038 62.51 686.998 58.7 686.998 54.5C686.998 50.3 686.038 46.52 684.118 43.16C682.258 39.74 679.648 37.07 676.288 35.15C672.988 33.17 669.268 32.18 665.128 32.18C660.988 32.18 657.268 33.17 653.968 35.15C650.668 37.07 648.058 39.74 646.138 43.16C644.278 46.52 643.348 50.3 643.348 54.5C643.348 58.7 644.278 62.51 646.138 65.93C648.058 69.29 650.668 71.93 653.968 73.85C657.268 75.77 660.988 76.73 665.128 76.73Z" fill="#F5F5F5"/>
</svg>
