<svg width="699" height="88" viewBox="0 0 699 88" fill="none" xmlns="http://www.w3.org/2000/svg">
<path d="M0.942969 86V23H22.993C30.673 23 36.703 24.62 41.083 27.86C45.523 31.04 47.743 35.42 47.743 41C47.743 46.58 45.643 50.99 41.443 54.23C37.303 57.41 31.603 59 24.343 59H11.743V86H0.942969ZM21.823 57.2C26.503 57.2 30.193 56.09 32.893 53.87C35.593 51.65 36.943 48.65 36.943 44.87C36.943 41.03 35.593 38 32.893 35.78C30.193 33.56 26.503 32.45 21.823 32.45H11.743V57.2H21.823ZM88.5854 87.35C82.9454 87.35 77.9954 86.18 73.7354 83.84C69.4754 81.44 66.1754 78.08 63.8354 73.76C61.4954 69.44 60.3254 64.4 60.3254 58.64V23H71.1254V58.1C71.1254 62 71.8154 65.36 73.1954 68.18C74.6354 71 76.6454 73.16 79.2254 74.66C81.8654 76.16 84.9854 76.91 88.5854 76.91C92.2454 76.91 95.3654 76.16 97.9454 74.66C100.585 73.16 102.595 71 103.975 68.18C105.355 65.36 106.045 62 106.045 58.1V23H116.845V58.64C116.845 64.4 115.675 69.44 113.335 73.76C111.055 78.08 107.785 81.44 103.525 83.84C99.2654 86.18 94.2854 87.35 88.5854 87.35ZM88.5854 15.35L94.5254 0.949995H96.5054L90.4754 15.35H88.5854ZM135.328 86V23H163.408C169.828 23 174.868 24.44 178.528 27.32C182.188 30.2 184.018 34.16 184.018 39.2C184.018 42.86 182.998 45.98 180.958 48.56C178.918 51.08 176.008 52.88 172.228 53.96V54.41C176.608 55.37 180.028 57.2 182.488 59.9C184.948 62.6 186.178 65.9 186.178 69.8C186.178 73.04 185.338 75.89 183.658 78.35C182.038 80.81 179.698 82.7 176.638 84.02C173.578 85.34 170.038 86 166.018 86H135.328ZM162.328 75.83C166.168 75.83 169.228 74.9 171.508 73.04C173.788 71.18 174.928 68.69 174.928 65.57C174.928 62.45 173.758 59.99 171.418 58.19C169.138 56.33 166.108 55.4 162.328 55.4H146.128V75.83H162.328ZM160.708 53.6C164.548 53.6 167.608 52.67 169.888 50.81C172.168 48.95 173.308 46.46 173.308 43.34C173.308 40.22 172.168 37.76 169.888 35.96C167.608 34.1 164.548 33.17 160.708 33.17H146.128V53.6H160.708ZM200.543 86V23H211.343V75.56H243.743V86H200.543ZM256.793 86V23H267.593V86H256.793ZM314.04 87.35C307.8 87.35 302.22 85.94 297.3 83.12C292.38 80.3 288.51 76.4 285.69 71.42C282.93 66.44 281.55 60.8 281.55 54.5C281.55 48.2 282.93 42.56 285.69 37.58C288.51 32.6 292.38 28.7 297.3 25.88C302.22 23.06 307.8 21.65 314.04 21.65C319.44 21.65 324.36 22.79 328.8 25.07C333.3 27.29 336.93 30.41 339.69 34.43C342.45 38.45 344.1 43.04 344.64 48.2H333.75C333.15 44.96 331.92 42.14 330.06 39.74C328.26 37.34 325.98 35.48 323.22 34.16C320.46 32.84 317.37 32.18 313.95 32.18C309.81 32.18 306.12 33.14 302.88 35.06C299.64 36.92 297.12 39.56 295.32 42.98C293.52 46.34 292.62 50.18 292.62 54.5C292.62 58.82 293.52 62.66 295.32 66.02C297.12 69.38 299.64 72.02 302.88 73.94C306.12 75.8 309.81 76.73 313.95 76.73C317.37 76.73 320.46 76.1 323.22 74.84C325.98 73.52 328.26 71.66 330.06 69.26C331.92 66.86 333.15 64.04 333.75 60.8H344.64C344.1 65.96 342.45 70.55 339.69 74.57C336.93 78.59 333.3 81.74 328.8 84.02C324.36 86.24 319.44 87.35 314.04 87.35ZM386.646 87.35C380.466 87.35 374.856 85.94 369.816 83.12C364.836 80.24 360.906 76.31 358.026 71.33C355.206 66.29 353.796 60.68 353.796 54.5C353.796 48.32 355.206 42.74 358.026 37.76C360.906 32.72 364.836 28.79 369.816 25.97C374.856 23.09 380.466 21.65 386.646 21.65C392.826 21.65 398.406 23.09 403.386 25.97C408.426 28.79 412.356 32.72 415.176 37.76C418.056 42.74 419.496 48.32 419.496 54.5C419.496 60.68 418.056 66.29 415.176 71.33C412.356 76.31 408.426 80.24 403.386 83.12C398.406 85.94 392.826 87.35 386.646 87.35ZM386.646 76.73C390.786 76.73 394.506 75.77 397.806 73.85C401.166 71.93 403.776 69.29 405.636 65.93C407.556 62.51 408.516 58.7 408.516 54.5C408.516 50.3 407.556 46.52 405.636 43.16C403.776 39.74 401.166 37.07 397.806 35.15C394.506 33.17 390.786 32.18 386.646 32.18C382.506 32.18 378.786 33.17 375.486 35.15C372.186 37.07 369.576 39.74 367.656 43.16C365.796 46.52 364.866 50.3 364.866 54.5C364.866 58.7 365.796 62.51 367.656 65.93C369.576 69.29 372.186 71.93 375.486 73.85C378.786 75.77 382.506 76.73 386.646 76.73ZM448.552 86L473.392 23H487.342L512.182 86H500.752L493.372 67.1H467.182L459.712 86H448.552ZM467.812 65.39H492.652L480.322 34.34L467.812 65.39ZM523.629 86V23H534.429V75.56H566.829V86H523.629ZM589.073 86L563.963 23H575.663L596.273 76.37H596.543L617.153 23H628.493L603.293 86H589.073ZM665.171 87.35C658.991 87.35 653.381 85.94 648.341 83.12C643.361 80.24 639.431 76.31 636.551 71.33C633.731 66.29 632.321 60.68 632.321 54.5C632.321 48.32 633.731 42.74 636.551 37.76C639.431 32.72 643.361 28.79 648.341 25.97C653.381 23.09 658.991 21.65 665.171 21.65C671.351 21.65 676.931 23.09 681.911 25.97C686.951 28.79 690.881 32.72 693.701 37.76C696.581 42.74 698.021 48.32 698.021 54.5C698.021 60.68 696.581 66.29 693.701 71.33C690.881 76.31 686.951 80.24 681.911 83.12C676.931 85.94 671.351 87.35 665.171 87.35ZM665.171 76.73C669.311 76.73 673.031 75.77 676.331 73.85C679.691 71.93 682.301 69.29 684.161 65.93C686.081 62.51 687.041 58.7 687.041 54.5C687.041 50.3 686.081 46.52 684.161 43.16C682.301 39.74 679.691 37.07 676.331 35.15C673.031 33.17 669.311 32.18 665.171 32.18C661.031 32.18 657.311 33.17 654.011 35.15C650.711 37.07 648.101 39.74 646.181 43.16C644.321 46.52 643.391 50.3 643.391 54.5C643.391 58.7 644.321 62.51 646.181 65.93C648.101 69.29 650.711 71.93 654.011 73.85C657.311 75.77 661.031 76.73 665.171 76.73Z" fill="#F5F5F5"/>
</svg>
