<svg width="536" height="67" viewBox="0 0 536 67" fill="none" xmlns="http://www.w3.org/2000/svg">
<path d="M0.900001 65V2H22.95C30.63 2 36.66 3.62 41.04 6.86C45.48 10.04 47.7 14.42 47.7 20C47.7 24.44 46.35 28.13 43.65 31.07C40.95 34.01 37.17 35.99 32.31 37.01L53.28 65H41.13L20.88 37.91C20.64 37.97 20.4 38 20.16 38C19.92 38 19.68 38 19.44 38H11.52V65H0.900001ZM21.78 36.2C26.46 36.2 30.15 35.09 32.85 32.87C35.55 30.65 36.9 27.65 36.9 23.87C36.9 20.03 35.55 17 32.85 14.78C30.15 12.56 26.46 11.45 21.78 11.45H11.52V36.2H21.78ZM64.9723 65V2H105.562V11.45H75.5923V32.6H96.6523V34.4H75.5923V55.55H108.712V65H64.9723ZM143.934 66.35C138.414 66.35 133.434 64.97 128.994 62.21C124.614 59.45 121.164 55.58 118.644 50.6C116.184 45.62 114.954 39.92 114.954 33.5C114.954 27.2 116.334 21.56 119.094 16.58C121.914 11.6 125.754 7.7 130.614 4.88C135.534 2.06 141.084 0.649997 147.264 0.649997C152.484 0.649997 157.254 1.67 161.574 3.71C165.894 5.75 169.434 8.6 172.194 12.26C175.014 15.92 176.874 20.15 177.774 24.95H166.434C165.354 20.57 163.134 17.12 159.774 14.6C156.414 12.08 152.334 10.82 147.534 10.82C143.334 10.82 139.584 11.81 136.284 13.79C133.044 15.71 130.494 18.41 128.634 21.89C126.834 25.37 125.934 29.33 125.934 33.77C125.934 38.27 126.864 42.29 128.724 45.83C130.584 49.37 133.164 52.13 136.464 54.11C139.824 56.09 143.634 57.08 147.894 57.08C151.914 57.08 155.514 56.15 158.694 54.29C161.934 52.43 164.454 49.88 166.254 46.64C168.114 43.34 169.044 39.65 169.044 35.57V34.4H148.164V32.6H178.224V65H169.044V42.77C167.844 50.03 165.024 55.79 160.584 60.05C156.204 64.25 150.654 66.35 143.934 66.35ZM194.347 65V2H205.147V65H194.347ZM247.433 66.35C241.793 66.35 236.813 65.39 232.493 63.47C228.233 61.55 224.843 58.82 222.323 55.28C219.863 51.68 218.453 47.51 218.093 42.77H228.803C229.223 45.77 230.183 48.38 231.683 50.6C233.183 52.76 235.223 54.44 237.803 55.64C240.383 56.84 243.383 57.44 246.803 57.44C251.723 57.44 255.533 56.48 258.233 54.56C260.993 52.64 262.373 49.94 262.373 46.46C262.373 43.88 261.563 41.78 259.943 40.16C258.383 38.48 256.193 37.16 253.373 36.2C250.613 35.24 247.013 34.31 242.573 33.41H242.483C237.803 32.45 233.873 31.37 230.693 30.17C227.573 28.91 225.083 27.26 223.223 25.22C221.423 23.12 220.523 20.51 220.523 17.39C220.523 14.03 221.543 11.09 223.583 8.57C225.683 6.05 228.563 4.1 232.223 2.72C235.883 1.34 240.053 0.649997 244.733 0.649997C250.253 0.649997 255.053 1.58 259.133 3.44C263.273 5.3 266.513 7.97 268.853 11.45C271.193 14.87 272.543 18.95 272.903 23.69H261.743C261.263 19.25 259.553 15.8 256.613 13.34C253.673 10.88 249.833 9.65 245.093 9.65C242.093 9.65 239.453 10.1 237.173 11C234.953 11.9 233.213 13.19 231.953 14.87C230.753 16.55 230.153 18.53 230.153 20.81C230.153 23.33 230.963 25.37 232.583 26.93C234.203 28.43 236.513 29.69 239.513 30.71C242.513 31.67 246.803 32.75 252.383 33.95C252.623 34.01 252.833 34.07 253.013 34.13C253.193 34.13 253.403 34.16 253.643 34.22C253.763 34.28 253.883 34.31 254.003 34.31C254.123 34.31 254.243 34.34 254.363 34.4C258.203 35.24 261.413 36.2 263.993 37.28C266.633 38.36 268.733 39.89 270.293 41.87C271.913 43.85 272.723 46.4 272.723 49.52C272.723 52.88 271.673 55.85 269.573 58.43C267.533 60.95 264.593 62.9 260.753 64.28C256.913 65.66 252.473 66.35 247.433 66.35ZM302.301 65V12.44H278.631V2H336.681V12.44H313.101V65H302.301ZM348.859 65V2H370.909C378.589 2 384.619 3.62 388.999 6.86C393.439 10.04 395.659 14.42 395.659 20C395.659 24.44 394.309 28.13 391.609 31.07C388.909 34.01 385.129 35.99 380.269 37.01L401.239 65H389.089L368.839 37.91C368.599 37.97 368.359 38 368.119 38C367.879 38 367.639 38 367.399 38H359.479V65H348.859ZM369.739 36.2C374.419 36.2 378.109 35.09 380.809 32.87C383.509 30.65 384.859 27.65 384.859 23.87C384.859 20.03 383.509 17 380.809 14.78C378.109 12.56 374.419 11.45 369.739 11.45H359.479V36.2H369.739ZM439.952 66.35C433.772 66.35 428.162 64.94 423.122 62.12C418.142 59.24 414.212 55.31 411.332 50.33C408.512 45.29 407.102 39.68 407.102 33.5C407.102 27.32 408.512 21.74 411.332 16.76C414.212 11.72 418.142 7.79 423.122 4.97C428.162 2.09 433.772 0.649997 439.952 0.649997C446.132 0.649997 451.712 2.09 456.692 4.97C461.732 7.79 465.662 11.72 468.482 16.76C471.362 21.74 472.802 27.32 472.802 33.5C472.802 39.68 471.362 45.29 468.482 50.33C465.662 55.31 461.732 59.24 456.692 62.12C451.712 64.94 446.132 66.35 439.952 66.35ZM439.952 55.73C444.092 55.73 447.812 54.77 451.112 52.85C454.472 50.93 457.082 48.29 458.942 44.93C460.862 41.51 461.822 37.7 461.822 33.5C461.822 29.3 460.862 25.52 458.942 22.16C457.082 18.74 454.472 16.07 451.112 14.15C447.812 12.17 444.092 11.18 439.952 11.18C435.812 11.18 432.092 12.17 428.792 14.15C425.492 16.07 422.882 18.74 420.962 22.16C419.102 25.52 418.172 29.3 418.172 33.5C418.172 37.7 419.102 41.51 420.962 44.93C422.882 48.29 425.492 50.93 428.792 52.85C432.092 54.77 435.812 55.73 439.952 55.73ZM510.138 66.35C504.498 66.35 499.518 65.39 495.198 63.47C490.938 61.55 487.548 58.82 485.028 55.28C482.568 51.68 481.158 47.51 480.798 42.77H491.508C491.928 45.77 492.888 48.38 494.388 50.6C495.888 52.76 497.928 54.44 500.508 55.64C503.088 56.84 506.088 57.44 509.508 57.44C514.428 57.44 518.238 56.48 520.938 54.56C523.698 52.64 525.078 49.94 525.078 46.46C525.078 43.88 524.268 41.78 522.648 40.16C521.088 38.48 518.898 37.16 516.078 36.2C513.318 35.24 509.718 34.31 505.278 33.41H505.188C500.508 32.45 496.578 31.37 493.398 30.17C490.278 28.91 487.788 27.26 485.928 25.22C484.128 23.12 483.228 20.51 483.228 17.39C483.228 14.03 484.248 11.09 486.288 8.57C488.388 6.05 491.268 4.1 494.928 2.72C498.588 1.34 502.758 0.649997 507.438 0.649997C512.958 0.649997 517.758 1.58 521.838 3.44C525.978 5.3 529.218 7.97 531.558 11.45C533.898 14.87 535.248 18.95 535.608 23.69H524.448C523.968 19.25 522.258 15.8 519.318 13.34C516.378 10.88 512.538 9.65 507.798 9.65C504.798 9.65 502.158 10.1 499.878 11C497.658 11.9 495.918 13.19 494.658 14.87C493.458 16.55 492.858 18.53 492.858 20.81C492.858 23.33 493.668 25.37 495.288 26.93C496.908 28.43 499.218 29.69 502.218 30.71C505.218 31.67 509.508 32.75 515.088 33.95C515.328 34.01 515.538 34.07 515.718 34.13C515.898 34.13 516.108 34.16 516.348 34.22C516.468 34.28 516.588 34.31 516.708 34.31C516.828 34.31 516.948 34.34 517.068 34.4C520.908 35.24 524.118 36.2 526.698 37.28C529.338 38.36 531.438 39.89 532.998 41.87C534.618 43.85 535.428 46.4 535.428 49.52C535.428 52.88 534.378 55.85 532.278 58.43C530.238 60.95 527.298 62.9 523.458 64.28C519.618 65.66 515.178 66.35 510.138 66.35Z" fill="#F5F5F5"/>
</svg>
