<svg width="627" height="195" viewBox="0 0 627 195" fill="none" xmlns="http://www.w3.org/2000/svg">
<g filter="url(#filter0_d_64_112)">
<path d="M34.4 66.35C28.76 66.35 23.78 65.39 19.46 63.47C15.2 61.55 11.81 58.82 9.29 55.28C6.83 51.68 5.42 47.51 5.06 42.77H15.77C16.19 45.77 17.15 48.38 18.65 50.6C20.15 52.76 22.19 54.44 24.77 55.64C27.35 56.84 30.35 57.44 33.77 57.44C38.69 57.44 42.5 56.48 45.2 54.56C47.96 52.64 49.34 49.94 49.34 46.46C49.34 43.88 48.53 41.78 46.91 40.16C45.35 38.48 43.16 37.16 40.34 36.2C37.58 35.24 33.98 34.31 29.54 33.41H29.45C24.77 32.45 20.84 31.37 17.66 30.17C14.54 28.91 12.05 27.26 10.19 25.22C8.39 23.12 7.49 20.51 7.49 17.39C7.49 14.03 8.51 11.09 10.55 8.57C12.65 6.05 15.53 4.1 19.19 2.72C22.85 1.34 27.02 0.649997 31.7 0.649997C37.22 0.649997 42.02 1.58 46.1 3.44C50.24 5.3 53.48 7.97 55.82 11.45C58.16 14.87 59.51 18.95 59.87 23.69H48.71C48.23 19.25 46.52 15.8 43.58 13.34C40.64 10.88 36.8 9.65 32.06 9.65C29.06 9.65 26.42 10.1 24.14 11C21.92 11.9 20.18 13.19 18.92 14.87C17.72 16.55 17.12 18.53 17.12 20.81C17.12 23.33 17.93 25.37 19.55 26.93C21.17 28.43 23.48 29.69 26.48 30.71C29.48 31.67 33.77 32.75 39.35 33.95C39.59 34.01 39.8 34.07 39.98 34.13C40.16 34.13 40.37 34.16 40.61 34.22C40.73 34.28 40.85 34.31 40.97 34.31C41.09 34.31 41.21 34.34 41.33 34.4C45.17 35.24 48.38 36.2 50.96 37.28C53.6 38.36 55.7 39.89 57.26 41.87C58.88 43.85 59.69 46.4 59.69 49.52C59.69 52.88 58.64 55.85 56.54 58.43C54.5 60.95 51.56 62.9 47.72 64.28C43.88 65.66 39.44 66.35 34.4 66.35ZM73.6871 65V2H114.277V11.45H84.3071V32.6H105.367V34.4H84.3071V55.55H117.427V65H73.6871ZM131.255 65V2H142.595L164.915 62.66L187.235 2H198.485V65H187.685V6.5L165.995 65H163.745L142.055 6.5V65H131.255ZM209.987 65L234.827 2H248.777L273.617 65H262.187L254.807 46.1H228.617L221.147 65H209.987ZM229.247 44.39H254.087L241.757 13.34L229.247 44.39ZM285.064 65V2H296.044L330.064 61.13V2H340.864V65H329.974L295.864 5.87V65H285.064ZM352.37 65L377.21 2H391.16L416 65H404.57L397.19 46.1H371L363.53 65H352.37ZM371.63 44.39H396.47L384.14 13.34L371.63 44.39ZM449.068 66.35C443.428 66.35 438.448 65.39 434.128 63.47C429.868 61.55 426.478 58.82 423.958 55.28C421.498 51.68 420.088 47.51 419.728 42.77H430.438C430.858 45.77 431.818 48.38 433.318 50.6C434.818 52.76 436.858 54.44 439.438 55.64C442.018 56.84 445.018 57.44 448.438 57.44C453.358 57.44 457.168 56.48 459.868 54.56C462.628 52.64 464.008 49.94 464.008 46.46C464.008 43.88 463.198 41.78 461.578 40.16C460.018 38.48 457.828 37.16 455.008 36.2C452.248 35.24 448.648 34.31 444.208 33.41H444.118C439.438 32.45 435.508 31.37 432.328 30.17C429.208 28.91 426.718 27.26 424.858 25.22C423.058 23.12 422.158 20.51 422.158 17.39C422.158 14.03 423.178 11.09 425.218 8.57C427.318 6.05 430.198 4.1 433.858 2.72C437.518 1.34 441.688 0.649997 446.368 0.649997C451.888 0.649997 456.688 1.58 460.768 3.44C464.908 5.3 468.148 7.97 470.488 11.45C472.828 14.87 474.178 18.95 474.538 23.69H463.378C462.898 19.25 461.188 15.8 458.248 13.34C455.308 10.88 451.468 9.65 446.728 9.65C443.728 9.65 441.088 10.1 438.808 11C436.588 11.9 434.848 13.19 433.588 14.87C432.388 16.55 431.788 18.53 431.788 20.81C431.788 23.33 432.598 25.37 434.218 26.93C435.838 28.43 438.148 29.69 441.148 30.71C444.148 31.67 448.438 32.75 454.018 33.95C454.258 34.01 454.468 34.07 454.648 34.13C454.828 34.13 455.038 34.16 455.278 34.22C455.398 34.28 455.518 34.31 455.638 34.31C455.758 34.31 455.878 34.34 455.998 34.4C459.838 35.24 463.048 36.2 465.628 37.28C468.268 38.36 470.368 39.89 471.928 41.87C473.548 43.85 474.358 46.4 474.358 49.52C474.358 52.88 473.308 55.85 471.208 58.43C469.168 60.95 466.228 62.9 462.388 64.28C458.548 65.66 454.108 66.35 449.068 66.35ZM510.855 65V2H530.925C537.705 2 543.705 3.32 548.925 5.96C554.145 8.54 558.165 12.23 560.985 17.03C563.865 21.77 565.305 27.26 565.305 33.5C565.305 39.68 563.865 45.17 560.985 49.97C558.165 54.71 554.145 58.4 548.925 61.04C543.705 63.68 537.705 65 530.925 65H510.855ZM530.925 55.19C535.665 55.19 539.775 54.32 543.255 52.58C546.735 50.78 549.405 48.26 551.265 45.02C553.185 41.72 554.145 37.88 554.145 33.5C554.145 29.12 553.185 25.31 551.265 22.07C549.405 18.77 546.735 16.25 543.255 14.51C539.775 12.71 535.665 11.81 530.925 11.81H521.655V55.19H530.925ZM579.234 65V2H619.824V11.45H589.854V32.6H610.914V34.4H589.854V55.55H622.974V65H579.234ZM27.92 185V132.44H4.25V122H62.3V132.44H38.72V185H27.92ZM74.4781 185V122H96.5281C104.208 122 110.238 123.62 114.618 126.86C119.058 130.04 121.278 134.42 121.278 140C121.278 144.44 119.928 148.13 117.228 151.07C114.528 154.01 110.748 155.99 105.888 157.01L126.858 185H114.708L94.4581 157.91C94.2181 157.97 93.9781 158 93.7381 158C93.4981 158 93.2581 158 93.0181 158H85.0981V185H74.4781ZM95.3581 156.2C100.038 156.2 103.728 155.09 106.428 152.87C109.128 150.65 110.478 147.65 110.478 143.87C110.478 140.03 109.128 137 106.428 134.78C103.728 132.56 100.038 131.45 95.3581 131.45H85.0981V156.2H95.3581ZM129.391 185L154.231 122H168.181L193.021 185H181.591L174.211 166.1H148.021L140.551 185H129.391ZM148.651 164.39H173.491L161.161 133.34L148.651 164.39ZM204.468 185V122H232.548C238.968 122 244.008 123.44 247.668 126.32C251.328 129.2 253.158 133.16 253.158 138.2C253.158 141.86 252.138 144.98 250.098 147.56C248.058 150.08 245.148 151.88 241.368 152.96V153.41C245.748 154.37 249.168 156.2 251.628 158.9C254.088 161.6 255.318 164.9 255.318 168.8C255.318 172.04 254.478 174.89 252.798 177.35C251.178 179.81 248.838 181.7 245.778 183.02C242.718 184.34 239.178 185 235.158 185H204.468ZM231.468 174.83C235.308 174.83 238.368 173.9 240.648 172.04C242.928 170.18 244.068 167.69 244.068 164.57C244.068 161.45 242.898 158.99 240.558 157.19C238.278 155.33 235.248 154.4 231.468 154.4H215.268V174.83H231.468ZM229.848 152.6C233.688 152.6 236.748 151.67 239.028 149.81C241.308 147.95 242.448 145.46 242.448 142.34C242.448 139.22 241.308 136.76 239.028 134.96C236.748 133.1 233.688 132.17 229.848 132.17H215.268V152.6H229.848ZM260.524 185L285.364 122H299.314L324.154 185H312.724L305.344 166.1H279.154L271.684 185H260.524ZM279.784 164.39H304.624L292.294 133.34L279.784 164.39ZM335.601 185V122H346.401V174.56H378.801V185H335.601ZM391.851 185V122H402.651V152.6H435.051V122H445.851V185H435.051V154.4H402.651V185H391.851ZM492.7 186.35C486.52 186.35 480.91 184.94 475.87 182.12C470.89 179.24 466.96 175.31 464.08 170.33C461.26 165.29 459.85 159.68 459.85 153.5C459.85 147.32 461.26 141.74 464.08 136.76C466.96 131.72 470.89 127.79 475.87 124.97C480.91 122.09 486.52 120.65 492.7 120.65C498.88 120.65 504.46 122.09 509.44 124.97C514.48 127.79 518.41 131.72 521.23 136.76C524.11 141.74 525.55 147.32 525.55 153.5C525.55 159.68 524.11 165.29 521.23 170.33C518.41 175.31 514.48 179.24 509.44 182.12C504.46 184.94 498.88 186.35 492.7 186.35ZM492.7 175.73C496.84 175.73 500.56 174.77 503.86 172.85C507.22 170.93 509.83 168.29 511.69 164.93C513.61 161.51 514.57 157.7 514.57 153.5C514.57 149.3 513.61 145.52 511.69 142.16C509.83 138.74 507.22 136.07 503.86 134.15C500.56 132.17 496.84 131.18 492.7 131.18C488.56 131.18 484.84 132.17 481.54 134.15C478.24 136.07 475.63 138.74 473.71 142.16C471.85 145.52 470.92 149.3 470.92 153.5C470.92 157.7 471.85 161.51 473.71 164.93C475.63 168.29 478.24 170.93 481.54 172.85C484.84 174.77 488.56 175.73 492.7 175.73Z" fill="#F5F5F5"/>
</g>
<defs>
<filter id="filter0_d_64_112" x="0.25" y="0.650024" width="626.724" height="193.7" filterUnits="userSpaceOnUse" color-interpolation-filters="sRGB">
<feFlood flood-opacity="0" result="BackgroundImageFix"/>
<feColorMatrix in="SourceAlpha" type="matrix" values="0 0 0 0 0 0 0 0 0 0 0 0 0 0 0 0 0 0 127 0" result="hardAlpha"/>
<feOffset dy="4"/>
<feGaussianBlur stdDeviation="2"/>
<feComposite in2="hardAlpha" operator="out"/>
<feColorMatrix type="matrix" values="0 0 0 0 0 0 0 0 0 0 0 0 0 0 0 0 0 0 0.25 0"/>
<feBlend mode="normal" in2="BackgroundImageFix" result="effect1_dropShadow_64_112"/>
<feBlend mode="normal" in="SourceGraphic" in2="effect1_dropShadow_64_112" result="shape"/>
</filter>
</defs>
</svg>
